<mxfile host="Electron" agent="Mozilla/5.0 (Macintosh; Intel Mac OS X 10_15_7) AppleWebKit/537.36 (KHTML, like Gecko) draw.io/24.7.17 Chrome/128.0.6613.36 Electron/32.0.1 Safari/537.36" version="24.7.17">
  <diagram name="Страница — 1" id="tjIu5t6TdpHribFpxDU0">
    <mxGraphModel dx="1060" dy="692" grid="1" gridSize="10" guides="1" tooltips="1" connect="1" arrows="1" fold="1" page="1" pageScale="1" pageWidth="827" pageHeight="1169" math="0" shadow="0">
      <root>
        <mxCell id="0" />
        <mxCell id="1" parent="0" />
        <mxCell id="KLZ8-DqQsXrFt5q9Ng0V-1" value="" style="rounded=0;whiteSpace=wrap;html=1;" vertex="1" parent="1">
          <mxGeometry x="80" y="70" width="160" height="300" as="geometry" />
        </mxCell>
        <mxCell id="KLZ8-DqQsXrFt5q9Ng0V-2" value="" style="rounded=1;whiteSpace=wrap;html=1;" vertex="1" parent="1">
          <mxGeometry x="100" y="120" width="120" height="160" as="geometry" />
        </mxCell>
        <mxCell id="KLZ8-DqQsXrFt5q9Ng0V-3" value="" style="rounded=0;whiteSpace=wrap;html=1;" vertex="1" parent="1">
          <mxGeometry x="80" y="80" width="160" height="30" as="geometry" />
        </mxCell>
        <mxCell id="KLZ8-DqQsXrFt5q9Ng0V-4" value="" style="html=1;verticalLabelPosition=bottom;align=center;labelBackgroundColor=#ffffff;verticalAlign=top;strokeWidth=2;strokeColor=#0080F0;shadow=0;dashed=0;shape=mxgraph.ios7.icons.camera;" vertex="1" parent="1">
          <mxGeometry x="90" y="84.6" width="30" height="20.4" as="geometry" />
        </mxCell>
        <mxCell id="KLZ8-DqQsXrFt5q9Ng0V-5" value="" style="html=1;verticalLabelPosition=bottom;align=center;labelBackgroundColor=#ffffff;verticalAlign=top;strokeWidth=2;strokeColor=#0080F0;shadow=0;dashed=0;shape=mxgraph.ios7.icons.calculator;" vertex="1" parent="1">
          <mxGeometry x="140" y="85" width="20" height="20" as="geometry" />
        </mxCell>
        <mxCell id="KLZ8-DqQsXrFt5q9Ng0V-7" value="" style="image;aspect=fixed;perimeter=ellipsePerimeter;html=1;align=center;shadow=0;dashed=0;spacingTop=3;image=img/lib/active_directory/tablet_pc.svg;" vertex="1" parent="1">
          <mxGeometry x="180" y="82.5" width="18.25" height="25" as="geometry" />
        </mxCell>
        <mxCell id="KLZ8-DqQsXrFt5q9Ng0V-8" value="" style="dashed=0;outlineConnect=0;html=1;align=center;labelPosition=center;verticalLabelPosition=bottom;verticalAlign=top;shape=mxgraph.weblogos.ask;fillColor=#D22028;strokeColor=none" vertex="1" parent="1">
          <mxGeometry x="210" y="84.6" width="28.25" height="20.6" as="geometry" />
        </mxCell>
        <mxCell id="KLZ8-DqQsXrFt5q9Ng0V-9" value="Here is some&lt;div&gt;math&lt;/div&gt;&lt;div&gt;task&lt;/div&gt;" style="text;html=1;align=center;verticalAlign=middle;whiteSpace=wrap;rounded=0;" vertex="1" parent="1">
          <mxGeometry x="130" y="150" width="60" height="110" as="geometry" />
        </mxCell>
        <mxCell id="KLZ8-DqQsXrFt5q9Ng0V-10" value="Here is decision or absence of decision during some error&amp;nbsp;" style="text;html=1;align=center;verticalAlign=middle;whiteSpace=wrap;rounded=0;" vertex="1" parent="1">
          <mxGeometry x="100" y="290" width="120" height="50" as="geometry" />
        </mxCell>
        <mxCell id="KLZ8-DqQsXrFt5q9Ng0V-13" value="" style="endArrow=none;dashed=1;html=1;rounded=0;" edge="1" parent="1">
          <mxGeometry width="50" height="50" relative="1" as="geometry">
            <mxPoint x="238.25" y="84.6" as="sourcePoint" />
            <mxPoint x="270" y="50" as="targetPoint" />
          </mxGeometry>
        </mxCell>
        <mxCell id="KLZ8-DqQsXrFt5q9Ng0V-14" value="" style="endArrow=none;dashed=1;html=1;rounded=0;" edge="1" parent="1">
          <mxGeometry width="50" height="50" relative="1" as="geometry">
            <mxPoint x="198.25" y="85" as="sourcePoint" />
            <mxPoint x="230" y="50.4" as="targetPoint" />
          </mxGeometry>
        </mxCell>
        <mxCell id="KLZ8-DqQsXrFt5q9Ng0V-15" value="" style="endArrow=none;dashed=1;html=1;rounded=0;exitX=0.051;exitY=-0.059;exitDx=0;exitDy=0;exitPerimeter=0;" edge="1" parent="1" source="KLZ8-DqQsXrFt5q9Ng0V-5">
          <mxGeometry width="50" height="50" relative="1" as="geometry">
            <mxPoint x="158.25" y="84.6" as="sourcePoint" />
            <mxPoint x="180" y="50" as="targetPoint" />
            <Array as="points">
              <mxPoint x="150" y="70" />
            </Array>
          </mxGeometry>
        </mxCell>
        <mxCell id="KLZ8-DqQsXrFt5q9Ng0V-17" value="" style="endArrow=none;dashed=1;html=1;rounded=0;" edge="1" parent="1">
          <mxGeometry width="50" height="50" relative="1" as="geometry">
            <mxPoint x="108.25" y="85" as="sourcePoint" />
            <mxPoint x="140" y="50.4" as="targetPoint" />
            <Array as="points">
              <mxPoint x="110" y="70" />
            </Array>
          </mxGeometry>
        </mxCell>
        <mxCell id="KLZ8-DqQsXrFt5q9Ng0V-18" value="Photo" style="text;html=1;align=center;verticalAlign=middle;whiteSpace=wrap;rounded=0;" vertex="1" parent="1">
          <mxGeometry x="100" y="30" width="60" height="30" as="geometry" />
        </mxCell>
        <mxCell id="KLZ8-DqQsXrFt5q9Ng0V-19" value="Calculate" style="text;html=1;align=center;verticalAlign=middle;whiteSpace=wrap;rounded=0;" vertex="1" parent="1">
          <mxGeometry x="150" y="30" width="60" height="30" as="geometry" />
        </mxCell>
        <mxCell id="KLZ8-DqQsXrFt5q9Ng0V-21" value="History" style="text;html=1;align=center;verticalAlign=middle;whiteSpace=wrap;rounded=0;" vertex="1" parent="1">
          <mxGeometry x="198.25" y="30" width="60" height="30" as="geometry" />
        </mxCell>
        <mxCell id="KLZ8-DqQsXrFt5q9Ng0V-22" value="Forum" style="text;html=1;align=center;verticalAlign=middle;whiteSpace=wrap;rounded=0;" vertex="1" parent="1">
          <mxGeometry x="238.25" y="30" width="60" height="30" as="geometry" />
        </mxCell>
        <mxCell id="KLZ8-DqQsXrFt5q9Ng0V-25" value="" style="endArrow=classic;html=1;rounded=0;" edge="1" parent="1">
          <mxGeometry width="50" height="50" relative="1" as="geometry">
            <mxPoint x="238.25" y="94.6" as="sourcePoint" />
            <mxPoint x="320" y="94.6" as="targetPoint" />
          </mxGeometry>
        </mxCell>
        <mxCell id="KLZ8-DqQsXrFt5q9Ng0V-26" value="" style="rounded=0;whiteSpace=wrap;html=1;" vertex="1" parent="1">
          <mxGeometry x="320" y="70" width="160" height="300" as="geometry" />
        </mxCell>
        <mxCell id="KLZ8-DqQsXrFt5q9Ng0V-27" value="" style="rounded=1;whiteSpace=wrap;html=1;" vertex="1" parent="1">
          <mxGeometry x="340" y="120" width="120" height="100" as="geometry" />
        </mxCell>
        <mxCell id="KLZ8-DqQsXrFt5q9Ng0V-28" value="" style="rounded=0;whiteSpace=wrap;html=1;" vertex="1" parent="1">
          <mxGeometry x="320" y="80" width="160" height="30" as="geometry" />
        </mxCell>
        <mxCell id="KLZ8-DqQsXrFt5q9Ng0V-29" value="" style="html=1;verticalLabelPosition=bottom;align=center;labelBackgroundColor=#ffffff;verticalAlign=top;strokeWidth=2;strokeColor=#0080F0;shadow=0;dashed=0;shape=mxgraph.ios7.icons.camera;" vertex="1" parent="1">
          <mxGeometry x="330" y="84.6" width="30" height="20.4" as="geometry" />
        </mxCell>
        <mxCell id="KLZ8-DqQsXrFt5q9Ng0V-30" value="" style="html=1;verticalLabelPosition=bottom;align=center;labelBackgroundColor=#ffffff;verticalAlign=top;strokeWidth=2;strokeColor=#0080F0;shadow=0;dashed=0;shape=mxgraph.ios7.icons.calculator;" vertex="1" parent="1">
          <mxGeometry x="380" y="85" width="20" height="20" as="geometry" />
        </mxCell>
        <mxCell id="KLZ8-DqQsXrFt5q9Ng0V-31" value="" style="image;aspect=fixed;perimeter=ellipsePerimeter;html=1;align=center;shadow=0;dashed=0;spacingTop=3;image=img/lib/active_directory/tablet_pc.svg;" vertex="1" parent="1">
          <mxGeometry x="420" y="82.5" width="18.25" height="25" as="geometry" />
        </mxCell>
        <mxCell id="KLZ8-DqQsXrFt5q9Ng0V-32" value="" style="dashed=0;outlineConnect=0;html=1;align=center;labelPosition=center;verticalLabelPosition=bottom;verticalAlign=top;shape=mxgraph.weblogos.ask;fillColor=#D22028;strokeColor=none" vertex="1" parent="1">
          <mxGeometry x="450" y="84.6" width="28.25" height="20.6" as="geometry" />
        </mxCell>
        <mxCell id="KLZ8-DqQsXrFt5q9Ng0V-33" value="Thread 1" style="text;html=1;align=center;verticalAlign=middle;whiteSpace=wrap;rounded=0;" vertex="1" parent="1">
          <mxGeometry x="370" y="120" width="60" height="30" as="geometry" />
        </mxCell>
        <mxCell id="KLZ8-DqQsXrFt5q9Ng0V-36" value="Thread 2&lt;div&gt;Thread 3&lt;/div&gt;&lt;div&gt;Thread 4&lt;/div&gt;" style="text;html=1;align=center;verticalAlign=middle;whiteSpace=wrap;rounded=0;" vertex="1" parent="1">
          <mxGeometry x="370" y="150" width="60" height="30" as="geometry" />
        </mxCell>
        <mxCell id="KLZ8-DqQsXrFt5q9Ng0V-37" value="Related Threads" style="rounded=1;whiteSpace=wrap;html=1;" vertex="1" parent="1">
          <mxGeometry x="340" y="190" width="120" height="30" as="geometry" />
        </mxCell>
        <mxCell id="KLZ8-DqQsXrFt5q9Ng0V-38" value="Create thread:&lt;div&gt;Describe your problem&lt;/div&gt;" style="rounded=0;whiteSpace=wrap;html=1;" vertex="1" parent="1">
          <mxGeometry x="340" y="230" width="120" height="120" as="geometry" />
        </mxCell>
        <mxCell id="KLZ8-DqQsXrFt5q9Ng0V-39" value="Tap on Ask" style="text;html=1;align=center;verticalAlign=middle;whiteSpace=wrap;rounded=0;" vertex="1" parent="1">
          <mxGeometry x="250" y="70" width="60" height="30" as="geometry" />
        </mxCell>
        <mxCell id="KLZ8-DqQsXrFt5q9Ng0V-41" value="" style="endArrow=none;html=1;rounded=0;entryX=0.313;entryY=0.014;entryDx=0;entryDy=0;entryPerimeter=0;exitX=0.315;exitY=0.998;exitDx=0;exitDy=0;exitPerimeter=0;" edge="1" parent="1" source="KLZ8-DqQsXrFt5q9Ng0V-3" target="KLZ8-DqQsXrFt5q9Ng0V-3">
          <mxGeometry width="50" height="50" relative="1" as="geometry">
            <mxPoint x="180" y="180" as="sourcePoint" />
            <mxPoint x="230" y="130" as="targetPoint" />
          </mxGeometry>
        </mxCell>
        <mxCell id="KLZ8-DqQsXrFt5q9Ng0V-42" value="" style="endArrow=none;html=1;rounded=0;entryX=0.313;entryY=0.014;entryDx=0;entryDy=0;entryPerimeter=0;exitX=0.315;exitY=0.998;exitDx=0;exitDy=0;exitPerimeter=0;" edge="1" parent="1">
          <mxGeometry width="50" height="50" relative="1" as="geometry">
            <mxPoint x="170" y="110" as="sourcePoint" />
            <mxPoint x="170" y="80" as="targetPoint" />
          </mxGeometry>
        </mxCell>
        <mxCell id="KLZ8-DqQsXrFt5q9Ng0V-47" value="" style="endArrow=none;html=1;rounded=0;exitX=0.811;exitY=1.025;exitDx=0;exitDy=0;exitPerimeter=0;" edge="1" parent="1" source="KLZ8-DqQsXrFt5q9Ng0V-28">
          <mxGeometry width="50" height="50" relative="1" as="geometry">
            <mxPoint x="420" y="140" as="sourcePoint" />
            <mxPoint x="450" y="80" as="targetPoint" />
          </mxGeometry>
        </mxCell>
        <mxCell id="KLZ8-DqQsXrFt5q9Ng0V-48" value="" style="endArrow=classic;html=1;rounded=0;entryX=0;entryY=0.23;entryDx=0;entryDy=0;entryPerimeter=0;" edge="1" parent="1" target="KLZ8-DqQsXrFt5q9Ng0V-57">
          <mxGeometry width="50" height="50" relative="1" as="geometry">
            <mxPoint x="428.25" y="140" as="sourcePoint" />
            <mxPoint x="478.25" y="90" as="targetPoint" />
          </mxGeometry>
        </mxCell>
        <mxCell id="KLZ8-DqQsXrFt5q9Ng0V-57" value="" style="rounded=0;whiteSpace=wrap;html=1;" vertex="1" parent="1">
          <mxGeometry x="520" y="70" width="160" height="300" as="geometry" />
        </mxCell>
        <mxCell id="KLZ8-DqQsXrFt5q9Ng0V-59" value="" style="rounded=0;whiteSpace=wrap;html=1;" vertex="1" parent="1">
          <mxGeometry x="520" y="80" width="160" height="30" as="geometry" />
        </mxCell>
        <mxCell id="KLZ8-DqQsXrFt5q9Ng0V-60" value="" style="html=1;verticalLabelPosition=bottom;align=center;labelBackgroundColor=#ffffff;verticalAlign=top;strokeWidth=2;strokeColor=#0080F0;shadow=0;dashed=0;shape=mxgraph.ios7.icons.camera;" vertex="1" parent="1">
          <mxGeometry x="530" y="84.6" width="30" height="20.4" as="geometry" />
        </mxCell>
        <mxCell id="KLZ8-DqQsXrFt5q9Ng0V-61" value="" style="html=1;verticalLabelPosition=bottom;align=center;labelBackgroundColor=#ffffff;verticalAlign=top;strokeWidth=2;strokeColor=#0080F0;shadow=0;dashed=0;shape=mxgraph.ios7.icons.calculator;" vertex="1" parent="1">
          <mxGeometry x="580" y="85" width="20" height="20" as="geometry" />
        </mxCell>
        <mxCell id="KLZ8-DqQsXrFt5q9Ng0V-62" value="" style="image;aspect=fixed;perimeter=ellipsePerimeter;html=1;align=center;shadow=0;dashed=0;spacingTop=3;image=img/lib/active_directory/tablet_pc.svg;" vertex="1" parent="1">
          <mxGeometry x="620" y="82.5" width="18.25" height="25" as="geometry" />
        </mxCell>
        <mxCell id="KLZ8-DqQsXrFt5q9Ng0V-63" value="" style="dashed=0;outlineConnect=0;html=1;align=center;labelPosition=center;verticalLabelPosition=bottom;verticalAlign=top;shape=mxgraph.weblogos.ask;fillColor=#D22028;strokeColor=none" vertex="1" parent="1">
          <mxGeometry x="650" y="84.6" width="28.25" height="20.6" as="geometry" />
        </mxCell>
        <mxCell id="KLZ8-DqQsXrFt5q9Ng0V-68" value="" style="endArrow=none;html=1;rounded=0;exitX=0.811;exitY=1.025;exitDx=0;exitDy=0;exitPerimeter=0;" edge="1" parent="1" source="KLZ8-DqQsXrFt5q9Ng0V-59">
          <mxGeometry width="50" height="50" relative="1" as="geometry">
            <mxPoint x="620" y="140" as="sourcePoint" />
            <mxPoint x="650" y="80" as="targetPoint" />
          </mxGeometry>
        </mxCell>
        <mxCell id="KLZ8-DqQsXrFt5q9Ng0V-71" value="Description of problem" style="rounded=0;whiteSpace=wrap;html=1;" vertex="1" parent="1">
          <mxGeometry x="550" y="120" width="120" height="60" as="geometry" />
        </mxCell>
        <mxCell id="KLZ8-DqQsXrFt5q9Ng0V-73" value="Comment" style="rounded=1;whiteSpace=wrap;html=1;" vertex="1" parent="1">
          <mxGeometry x="550" y="200" width="120" height="30" as="geometry" />
        </mxCell>
        <mxCell id="KLZ8-DqQsXrFt5q9Ng0V-74" value="Comment" style="rounded=1;whiteSpace=wrap;html=1;" vertex="1" parent="1">
          <mxGeometry x="550" y="237.5" width="120" height="60" as="geometry" />
        </mxCell>
        <mxCell id="KLZ8-DqQsXrFt5q9Ng0V-75" value="Comment" style="rounded=1;whiteSpace=wrap;html=1;" vertex="1" parent="1">
          <mxGeometry x="550" y="307.5" width="120" height="35" as="geometry" />
        </mxCell>
        <mxCell id="KLZ8-DqQsXrFt5q9Ng0V-76" value="&lt;span style=&quot;font-size: 8px;&quot;&gt;Name of user&lt;/span&gt;" style="text;html=1;align=center;verticalAlign=middle;whiteSpace=wrap;rounded=0;" vertex="1" parent="1">
          <mxGeometry x="550" y="110" width="60" height="30" as="geometry" />
        </mxCell>
        <mxCell id="KLZ8-DqQsXrFt5q9Ng0V-77" value="&lt;span style=&quot;font-size: 8px;&quot;&gt;Name of user&lt;/span&gt;" style="text;html=1;align=center;verticalAlign=middle;whiteSpace=wrap;rounded=0;" vertex="1" parent="1">
          <mxGeometry x="550" y="190" width="60" height="30" as="geometry" />
        </mxCell>
        <mxCell id="KLZ8-DqQsXrFt5q9Ng0V-79" value="" style="ellipse;whiteSpace=wrap;html=1;aspect=fixed;" vertex="1" parent="1">
          <mxGeometry x="520" y="120" width="20" height="20" as="geometry" />
        </mxCell>
        <mxCell id="KLZ8-DqQsXrFt5q9Ng0V-80" value="" style="ellipse;whiteSpace=wrap;html=1;aspect=fixed;" vertex="1" parent="1">
          <mxGeometry x="520" y="200" width="20" height="20" as="geometry" />
        </mxCell>
        <mxCell id="KLZ8-DqQsXrFt5q9Ng0V-81" value="" style="ellipse;whiteSpace=wrap;html=1;aspect=fixed;" vertex="1" parent="1">
          <mxGeometry x="520" y="237.5" width="20" height="20" as="geometry" />
        </mxCell>
        <mxCell id="KLZ8-DqQsXrFt5q9Ng0V-82" value="" style="ellipse;whiteSpace=wrap;html=1;aspect=fixed;" vertex="1" parent="1">
          <mxGeometry x="520" y="310" width="20" height="20" as="geometry" />
        </mxCell>
        <mxCell id="KLZ8-DqQsXrFt5q9Ng0V-83" value="&lt;span style=&quot;font-size: 8px;&quot;&gt;Name of user&lt;/span&gt;" style="text;html=1;align=center;verticalAlign=middle;whiteSpace=wrap;rounded=0;" vertex="1" parent="1">
          <mxGeometry x="550" y="230" width="60" height="30" as="geometry" />
        </mxCell>
        <mxCell id="KLZ8-DqQsXrFt5q9Ng0V-84" value="&lt;span style=&quot;font-size: 8px;&quot;&gt;Name of user&lt;/span&gt;" style="text;html=1;align=center;verticalAlign=middle;whiteSpace=wrap;rounded=0;" vertex="1" parent="1">
          <mxGeometry x="550" y="297.5" width="60" height="30" as="geometry" />
        </mxCell>
        <mxCell id="KLZ8-DqQsXrFt5q9Ng0V-86" value="tap on any thread" style="text;html=1;align=center;verticalAlign=middle;whiteSpace=wrap;rounded=0;" vertex="1" parent="1">
          <mxGeometry x="478.25" y="150" width="50" height="30" as="geometry" />
        </mxCell>
        <mxCell id="KLZ8-DqQsXrFt5q9Ng0V-90" value="" style="endArrow=classic;html=1;rounded=0;exitX=0.25;exitY=1;exitDx=0;exitDy=0;" edge="1" parent="1" source="KLZ8-DqQsXrFt5q9Ng0V-1">
          <mxGeometry width="50" height="50" relative="1" as="geometry">
            <mxPoint x="360" y="270" as="sourcePoint" />
            <mxPoint x="120" y="420" as="targetPoint" />
          </mxGeometry>
        </mxCell>
        <mxCell id="KLZ8-DqQsXrFt5q9Ng0V-92" value="Create Thread (Task data automatically performs)" style="rounded=1;whiteSpace=wrap;html=1;" vertex="1" parent="1">
          <mxGeometry x="90" y="340" width="140" height="27.5" as="geometry" />
        </mxCell>
        <mxCell id="KLZ8-DqQsXrFt5q9Ng0V-93" value="" style="endArrow=classic;html=1;rounded=0;" edge="1" parent="1">
          <mxGeometry width="50" height="50" relative="1" as="geometry">
            <mxPoint x="120" y="420" as="sourcePoint" />
            <mxPoint x="320" y="420" as="targetPoint" />
          </mxGeometry>
        </mxCell>
        <mxCell id="KLZ8-DqQsXrFt5q9Ng0V-94" value="" style="rounded=0;whiteSpace=wrap;html=1;" vertex="1" parent="1">
          <mxGeometry x="320" y="400" width="160" height="300" as="geometry" />
        </mxCell>
        <mxCell id="KLZ8-DqQsXrFt5q9Ng0V-96" value="" style="rounded=0;whiteSpace=wrap;html=1;" vertex="1" parent="1">
          <mxGeometry x="320" y="410" width="160" height="30" as="geometry" />
        </mxCell>
        <mxCell id="KLZ8-DqQsXrFt5q9Ng0V-97" value="" style="html=1;verticalLabelPosition=bottom;align=center;labelBackgroundColor=#ffffff;verticalAlign=top;strokeWidth=2;strokeColor=#0080F0;shadow=0;dashed=0;shape=mxgraph.ios7.icons.camera;" vertex="1" parent="1">
          <mxGeometry x="330" y="414.6" width="30" height="20.4" as="geometry" />
        </mxCell>
        <mxCell id="KLZ8-DqQsXrFt5q9Ng0V-98" value="" style="html=1;verticalLabelPosition=bottom;align=center;labelBackgroundColor=#ffffff;verticalAlign=top;strokeWidth=2;strokeColor=#0080F0;shadow=0;dashed=0;shape=mxgraph.ios7.icons.calculator;" vertex="1" parent="1">
          <mxGeometry x="380" y="415" width="20" height="20" as="geometry" />
        </mxCell>
        <mxCell id="KLZ8-DqQsXrFt5q9Ng0V-99" value="" style="image;aspect=fixed;perimeter=ellipsePerimeter;html=1;align=center;shadow=0;dashed=0;spacingTop=3;image=img/lib/active_directory/tablet_pc.svg;" vertex="1" parent="1">
          <mxGeometry x="420" y="412.5" width="18.25" height="25" as="geometry" />
        </mxCell>
        <mxCell id="KLZ8-DqQsXrFt5q9Ng0V-100" value="" style="dashed=0;outlineConnect=0;html=1;align=center;labelPosition=center;verticalLabelPosition=bottom;verticalAlign=top;shape=mxgraph.weblogos.ask;fillColor=#D22028;strokeColor=none" vertex="1" parent="1">
          <mxGeometry x="450" y="414.6" width="28.25" height="20.6" as="geometry" />
        </mxCell>
        <mxCell id="KLZ8-DqQsXrFt5q9Ng0V-105" value="" style="endArrow=none;html=1;rounded=0;exitX=0.811;exitY=1.025;exitDx=0;exitDy=0;exitPerimeter=0;" edge="1" parent="1" source="KLZ8-DqQsXrFt5q9Ng0V-96">
          <mxGeometry width="50" height="50" relative="1" as="geometry">
            <mxPoint x="420" y="470" as="sourcePoint" />
            <mxPoint x="450" y="410" as="targetPoint" />
          </mxGeometry>
        </mxCell>
        <mxCell id="KLZ8-DqQsXrFt5q9Ng0V-106" value="Tap on Create Thread" style="text;html=1;align=center;verticalAlign=middle;resizable=0;points=[];autosize=1;strokeColor=none;fillColor=none;" vertex="1" parent="1">
          <mxGeometry x="118.25" y="385" width="140" height="30" as="geometry" />
        </mxCell>
        <mxCell id="KLZ8-DqQsXrFt5q9Ng0V-108" value="" style="endArrow=classic;html=1;rounded=0;exitX=0.5;exitY=1;exitDx=0;exitDy=0;entryX=0.5;entryY=0;entryDx=0;entryDy=0;" edge="1" parent="1" source="KLZ8-DqQsXrFt5q9Ng0V-38" target="KLZ8-DqQsXrFt5q9Ng0V-94">
          <mxGeometry width="50" height="50" relative="1" as="geometry">
            <mxPoint x="360" y="440" as="sourcePoint" />
            <mxPoint x="410" y="390" as="targetPoint" />
          </mxGeometry>
        </mxCell>
        <mxCell id="KLZ8-DqQsXrFt5q9Ng0V-109" value="You may describe problem or use a template from calculation window and it automatically download in that window" style="rounded=0;whiteSpace=wrap;html=1;" vertex="1" parent="1">
          <mxGeometry x="340" y="450" width="120" height="120" as="geometry" />
        </mxCell>
        <mxCell id="KLZ8-DqQsXrFt5q9Ng0V-110" value="" style="shape=note;whiteSpace=wrap;html=1;backgroundOutline=1;darkOpacity=0.05;" vertex="1" parent="1">
          <mxGeometry x="330" y="610" width="50" height="70" as="geometry" />
        </mxCell>
        <mxCell id="KLZ8-DqQsXrFt5q9Ng0V-111" value="" style="shape=cross;whiteSpace=wrap;html=1;size=0.27586206896550797;" vertex="1" parent="1">
          <mxGeometry x="360" y="600" width="36" height="30" as="geometry" />
        </mxCell>
        <mxCell id="KLZ8-DqQsXrFt5q9Ng0V-113" value="You may upload some files to this thread" style="text;html=1;align=center;verticalAlign=middle;whiteSpace=wrap;rounded=0;" vertex="1" parent="1">
          <mxGeometry x="390" y="650" width="60" height="30" as="geometry" />
        </mxCell>
        <mxCell id="KLZ8-DqQsXrFt5q9Ng0V-114" value="Tap on Create Thread" style="text;html=1;align=center;verticalAlign=middle;resizable=0;points=[];autosize=1;strokeColor=none;fillColor=none;" vertex="1" parent="1">
          <mxGeometry x="400" y="370" width="140" height="30" as="geometry" />
        </mxCell>
      </root>
    </mxGraphModel>
  </diagram>
</mxfile>
